<svg width="57" height="10" viewBox="0 0 57 10" fill="none" xmlns="http://www.w3.org/2000/svg">
<path d="M44.3556 5.77032C44.4041 5.60243 44.411 5.45643 44.3762 5.33234C44.3429 5.20095 44.2778 5.09876 44.1807 5.02576C44.0837 4.95276 43.9607 4.91627 43.8118 4.91627C43.6257 4.91627 43.4577 4.97466 43.3078 5.09146C43.1579 5.20825 43.029 5.36884 42.9211 5.57323C42.8221 5.77032 42.7478 5.99295 42.6982 6.24114C42.6383 6.54042 42.6326 6.79225 42.6811 6.99664C42.737 7.20103 42.8359 7.35797 42.9777 7.46746C43.1285 7.56966 43.3156 7.62076 43.5389 7.62076C43.9781 7.62076 44.427 7.44192 44.8856 7.08424L45.9402 8.34341C45.5501 8.69379 45.1015 8.96388 44.5946 9.15366C44.0951 9.34345 43.5476 9.43835 42.952 9.43835C42.2597 9.43835 41.689 9.31425 41.2399 9.06607C40.7923 8.81058 40.4804 8.45291 40.3044 7.99303C40.1358 7.53316 40.1129 6.99664 40.2355 6.38348C40.3625 5.74842 40.606 5.20095 40.966 4.74108C41.3348 4.27391 41.7867 3.91258 42.3217 3.65709C42.8641 3.40161 43.4629 3.27386 44.1179 3.27386C44.8326 3.27386 45.4094 3.42351 45.8483 3.72279C46.2872 4.02207 46.5747 4.44544 46.7108 4.99291C46.8559 5.53308 46.8324 6.17179 46.6403 6.90905L42.2408 6.90905L42.4685 5.77032L44.3556 5.77032Z" fill="#283733"/>
<path d="M33.2277 6.24119C33.2788 5.9857 33.2556 5.78496 33.1583 5.63897C33.0609 5.49298 32.908 5.41998 32.6996 5.41998C32.4688 5.41998 32.2652 5.50758 32.0887 5.68277C31.9123 5.85796 31.7948 6.09154 31.7364 6.38353L31.1781 6.38353C31.3051 5.74847 31.5084 5.19735 31.7879 4.73018C32.0764 4.2557 32.4248 3.89073 32.8332 3.63524C33.2416 3.37976 33.6915 3.25201 34.1828 3.25201C34.6071 3.25201 34.9604 3.34691 35.2425 3.5367C35.5335 3.71919 35.7341 3.98197 35.8441 4.32505C35.9616 4.66813 35.9744 5.06961 35.8824 5.52948L35.1181 9.3508L32.6057 9.3508L33.2277 6.24119ZM37.2028 6.24119C37.2539 5.9857 37.2308 5.78496 37.1334 5.63897C37.0361 5.49298 36.8832 5.41998 36.6748 5.41998C36.444 5.41998 36.2404 5.50758 36.0639 5.68277C35.8874 5.85796 35.77 6.09154 35.7116 6.38353L35.1533 6.38353C35.2803 5.74847 35.4836 5.19735 35.7631 4.73018C36.0516 4.2557 36.4 3.89073 36.8084 3.63524C37.2168 3.37976 37.6667 3.25201 38.158 3.25201C38.5823 3.25201 38.9355 3.34691 39.2177 3.5367C39.5087 3.71919 39.7093 3.98197 39.8193 4.32505C39.9368 4.66813 39.9495 5.06961 39.8576 5.52948L39.0933 9.3508L36.5809 9.3508L37.2028 6.24119ZM29.8284 3.36151L32.3408 3.36151L31.143 9.3508L28.6306 9.3508L29.8284 3.36151Z" fill="#283733"/>
<path d="M24.9021 3.27388C25.386 3.27388 25.7773 3.40162 26.0761 3.6571C26.3838 3.90529 26.5884 4.25932 26.69 4.71919C26.8005 5.17176 26.7937 5.70828 26.6696 6.32874C26.544 6.95651 26.3377 7.50397 26.0508 7.97115C25.7712 8.43832 25.431 8.79965 25.03 9.05513C24.6365 9.31062 24.2052 9.43836 23.7362 9.43836C23.1705 9.43836 22.701 9.31062 22.3278 9.05513C21.962 8.79965 21.7105 8.43832 21.5731 7.97115C21.4372 7.49668 21.4321 6.94556 21.5576 6.3178C21.6817 5.69733 21.9007 5.16081 22.2145 4.70824C22.5284 4.25567 22.9148 3.90529 23.3739 3.6571C23.8419 3.40162 24.3513 3.27388 24.9021 3.27388ZM25.227 5.22286C25.0409 5.22286 24.8676 5.27031 24.7072 5.3652C24.5542 5.4601 24.423 5.59514 24.3135 5.77033C24.204 5.94552 24.1259 6.14991 24.0792 6.38349C24.0325 6.61708 24.0289 6.82146 24.0683 6.99665C24.1077 7.17184 24.1849 7.30689 24.2999 7.40178C24.4223 7.49668 24.5766 7.54412 24.7627 7.54412C24.9488 7.54412 25.1184 7.49668 25.2713 7.40178C25.4243 7.30689 25.5555 7.17184 25.665 6.99665C25.7745 6.82146 25.8526 6.61708 25.8993 6.38349C25.946 6.14991 25.9497 5.94552 25.9103 5.77033C25.8709 5.59514 25.7937 5.4601 25.6787 5.3652C25.5636 5.27031 25.4131 5.22286 25.227 5.22286ZM26.9307 1.22635L29.4431 1.22635L27.8183 9.35076L25.3059 9.35076L26.9307 1.22635Z" fill="#283733"/>
<path d="M17.7528 6.8872C17.5816 6.8872 17.4395 6.92735 17.3267 7.00764C17.2213 7.08794 17.1526 7.20838 17.1204 7.36897C17.0883 7.52956 17.1112 7.6573 17.189 7.7522C17.2668 7.84709 17.395 7.89454 17.5736 7.89454C17.6853 7.89454 17.7969 7.87629 17.9084 7.83979C18.0199 7.80329 18.1269 7.7522 18.2294 7.6865C18.3333 7.6135 18.4283 7.52956 18.5142 7.43466L18.66 8.15732C18.4368 8.5661 18.1307 8.88728 17.7415 9.12086C17.3613 9.34715 16.9106 9.46029 16.3895 9.46029C15.9578 9.46029 15.6046 9.38365 15.3301 9.23036C15.057 9.06977 14.8663 8.85078 14.758 8.5734C14.6586 8.28871 14.6469 7.95658 14.7228 7.57701C14.841 6.98574 15.1318 6.53682 15.5951 6.23024C16.0599 5.91636 16.6801 5.75577 17.4557 5.74847L19.0636 5.74847L18.8359 6.8872L17.7528 6.8872ZM18.8471 5.77036C18.8894 5.55868 18.8404 5.39444 18.7 5.27764C18.5685 5.15355 18.3464 5.0915 18.0337 5.0915C17.803 5.0915 17.5173 5.12435 17.1766 5.19005C16.8359 5.25575 16.4782 5.35064 16.1035 5.47473L15.8737 3.83233C16.2484 3.70824 16.6157 3.60239 16.9757 3.5148C17.343 3.4272 17.6986 3.36151 18.0424 3.31771C18.3861 3.27391 18.7069 3.25201 19.0046 3.25201C19.8905 3.25201 20.5404 3.44545 20.9543 3.83233C21.3757 4.21921 21.5156 4.76667 21.374 5.47473L20.5987 9.3508L18.131 9.3508L18.8471 5.77036Z" fill="#283733"/>
<path d="M12.2091 5.77032C12.2576 5.60243 12.2645 5.45643 12.2297 5.33234C12.1965 5.20095 12.1313 5.09876 12.0342 5.02576C11.9372 4.95276 11.8142 4.91627 11.6653 4.91627C11.4792 4.91627 11.3112 4.97466 11.1613 5.09146C11.0114 5.20825 10.8825 5.36884 10.7746 5.57323C10.6757 5.77032 10.6013 5.99295 10.5517 6.24114C10.4919 6.54042 10.4862 6.79225 10.5346 6.99664C10.5905 7.20103 10.6894 7.35797 10.8313 7.46746C10.982 7.56966 11.1691 7.62076 11.3924 7.62076C11.8316 7.62076 12.2805 7.44192 12.7392 7.08424L13.7938 8.34341C13.4036 8.69379 12.955 8.96388 12.4481 9.15366C11.9486 9.34345 11.4011 9.43835 10.8056 9.43835C10.1133 9.43835 9.54255 9.31425 9.09343 9.06607C8.64577 8.81058 8.33393 8.45291 8.15792 7.99303C7.98935 7.53316 7.96638 6.99664 8.08901 6.38348C8.21603 5.74842 8.45951 5.20095 8.81948 4.74108C9.18834 4.27391 9.64026 3.91258 10.1752 3.65709C10.7176 3.40161 11.3164 3.27386 11.9715 3.27386C12.6861 3.27386 13.2629 3.42351 13.7018 3.72279C14.1407 4.02207 14.4282 4.44544 14.5644 4.99291C14.7094 5.53308 14.6859 6.17179 14.4938 6.90905L10.0943 6.90905L10.3221 5.77032L12.2091 5.77032Z" fill="#283733"/>
<path d="M5.53448 0.974517C6.59899 0.974517 7.37339 1.2154 7.85768 1.69717C8.34343 2.17165 8.4987 2.84686 8.32352 3.7228C8.13811 4.64985 7.70325 5.37251 7.01896 5.89077C6.33612 6.40174 5.46245 6.65723 4.39794 6.65723L3.20316 6.65723L2.66445 9.35078L0.0738926 9.35078L1.74915 0.974517L5.53448 0.974517ZM4.78336 4.73014C5.06623 4.73014 5.29817 4.64985 5.47917 4.48926C5.66908 4.32137 5.79323 4.09143 5.85163 3.79945C5.90856 3.51477 5.8742 3.29578 5.74853 3.14249C5.63176 2.9819 5.43194 2.9016 5.14907 2.9016L3.95428 2.9016L3.58858 4.73014L4.78336 4.73014ZM3.92089 5.74843L6.42212 5.74843L7.49941 9.35078L4.57387 9.35078L3.92089 5.74843Z" fill="#283733"/>
<path fill-rule="evenodd" clip-rule="evenodd" d="M51.417 7.79547L52.1753 9.37484L55.3559 9.37484L53.4651 5.46797L51.417 7.79547ZM51.1974 7.33794L53.2532 5.03008L51.2003 0.788238L48.0526 0.788238L50.0913 5.03429L46.1572 9.37484L49.4896 9.37484L50.8472 7.76129L50.8456 7.7599L51.1914 7.34463L51.1973 7.33797L51.1974 7.33794ZM53.6566 4.58021L53.655 4.57905L53.5764 4.66729L52.4672 2.43826L53.82 0.788238L56.9479 0.788239L53.6566 4.58021Z" fill="#00D6B9"/>
</svg>
